<svg xmlns="http://www.w3.org/2000/svg" viewBox="0 0 512 512" width="512" height="512">
  <path fill="#000000" d="M128 128 C 128 60 192 32 256 32 C 320 32 384 60 384 128 L 384 384 C 384 452 320 480 256 480 C 192 480 128 452 128 384 Z M 160 236 L 200 236 L 200 276 L 160 276 Z M 330 224 A 12 12 0 1 0 330 248 A 12 12 0 1 0 330 224 Z M 354 248 A 12 12 0 1 0 354 272 A 12 12 0 1 0 354 248 Z M 306 248 A 12 12 0 1 0 306 272 A 12 12 0 1 0 306 248 Z M 330 272 A 12 12 0 1 0 330 296 A 12 12 0 1 0 330 272 Z"/>
</svg>
