<svg width="32" height="32" viewBox="0 0 32 32" fill="none" xmlns="http://www.w3.org/2000/svg">
<path d="M13.4711 20.6656C13.5351 19.9788 13.718 19.301 14.0197 18.6656H5.66256C4.00654 18.6656 2.66406 20.0081 2.66406 21.6641V22.4343C2.66406 23.6247 3.08875 24.776 3.86177 25.6813C5.95017 28.1269 9.13152 29.3338 13.326 29.3338C15.2097 29.3338 16.8894 29.0904 18.3579 28.6008L16.7379 26.9808C15.7205 27.2157 14.5843 27.3338 13.326 27.3338C9.67494 27.3338 7.05376 26.3394 5.38269 24.3825C4.91887 23.8393 4.66406 23.1486 4.66406 22.4343V21.6641C4.66406 21.1126 5.11111 20.6656 5.66256 20.6656H13.4711ZM13.326 2.67188C17.0079 2.67188 19.9927 5.65664 19.9927 9.33854C19.9927 13.0204 17.0079 16.0052 13.326 16.0052C9.64411 16.0052 6.65934 13.0204 6.65934 9.33854C6.65934 5.65664 9.64411 2.67188 13.326 2.67188ZM13.326 4.67188C10.7487 4.67188 8.65934 6.76121 8.65934 9.33854C8.65934 11.9159 10.7487 14.0052 13.326 14.0052C15.9033 14.0052 17.9927 11.9159 17.9927 9.33854C17.9927 6.76121 15.9033 4.67188 13.326 4.67188ZM22.7174 30.6614C22.4614 30.6614 22.2054 30.5637 22.0102 30.3685L16.1325 24.4908C14.3274 22.6856 14.3274 19.759 16.1325 17.9539C17.9376 16.1487 20.8643 16.1487 22.6694 17.9539L22.7174 18.0018L22.7654 17.9539C24.5705 16.1487 27.4972 16.1487 29.3023 17.9539C31.1074 19.759 31.1074 22.6856 29.3023 24.4908L23.4246 30.3685C23.2293 30.5637 22.9734 30.6614 22.7174 30.6614Z" fill="#454545"/>
</svg>
